<?xml version="1.0" encoding="UTF-8"?>
<svg id="uuid-136c6129-40f9-4b50-88d8-ff81e959f727" data-name="Layer 1" xmlns="http://www.w3.org/2000/svg" width="9" height="22" viewBox="0 0 9 22">
  <path d="m5.5,6.62V1c0-.55-.45-1-1-1s-1,.45-1,1v5.62c-2,.45-3.5,2.24-3.5,4.38s1.5,3.93,3.5,4.38v5.62c0,.55.45,1,1,1s1-.45,1-1v-5.62c2-.45,3.5-2.24,3.5-4.38s-1.5-3.93-3.5-4.38Zm-1,6.88c-.35,0-.69-.07-1-.21-.88-.38-1.5-1.26-1.5-2.29s.62-1.91,1.5-2.29c.31-.14.65-.21,1-.21s.69.07,1,.21c.88.38,1.5,1.26,1.5,2.29s-.62,1.91-1.5,2.29c-.31.14-.65.21-1,.21Z" style="stroke-width: 0px;"/>
</svg>