<svg viewBox="0 0 25 25" fill="none" xmlns="http://www.w3.org/2000/svg">
    <path d="M15.1213 12.4609L23.1808 4.47966L24.8239 2.83646C25.0587 2.60172 25.0587 2.21049 24.8239 1.8975L23.1025 0.176056C22.7895 -0.0586854 22.3983 -0.0586854 22.1635 0.176056L12.5391 9.87872L2.83646 0.176056C2.60172 -0.0586854 2.21049 -0.0586854 1.8975 0.176056L0.176056 1.8975C-0.0586854 2.21049 -0.0586854 2.60172 0.176056 2.83646L9.87872 12.4609L0.176056 22.1635C-0.0586854 22.3983 -0.0586854 22.7895 0.176056 23.1025L1.8975 24.8239C2.21049 25.0587 2.60172 25.0587 2.83646 24.8239L12.5391 15.1213L20.5203 23.1808L22.1635 24.8239C22.3983 25.0587 22.7895 25.0587 23.1025 24.8239L24.8239 23.1025C25.0587 22.7895 25.0587 22.3983 24.8239 22.1635L15.1213 12.4609Z"/>
</svg>
