<?xml version="1.0" standalone="no"?>
<!DOCTYPE svg PUBLIC "-//W3C//DTD SVG 20010904//EN"
 "http://www.w3.org/TR/2001/REC-SVG-20010904/DTD/svg10.dtd">
<svg version="1.0" xmlns="http://www.w3.org/2000/svg"
 width="700.000000pt" height="700.000000pt" viewBox="0 0 700.000000 700.000000"
 preserveAspectRatio="xMidYMid meet">
<metadata>
Created by potrace 1.14, written by Peter Selinger 2001-2017
</metadata>
<g transform="translate(0.000000,700.000000) scale(0.100000,-0.100000)"
fill="#000000" stroke="none">
<path d="M0 3500 l0 -3500 3500 0 3500 0 0 3500 0 3500 -3500 0 -3500 0 0
-3500z m2385 1055 c74 -19 189 -74 234 -113 l34 -28 -88 -97 -87 -97 -36 31
c-20 18 -66 46 -102 63 -57 27 -75 31 -150 30 -66 0 -97 -5 -138 -23 -156 -69
-176 -252 -36 -341 26 -16 110 -50 188 -75 184 -61 273 -105 339 -169 78 -75
110 -147 115 -259 8 -155 -33 -268 -131 -367 -107 -106 -261 -156 -457 -147
-186 9 -325 60 -434 159 l-59 54 97 91 97 91 44 -43 c112 -113 310 -155 439
-94 123 57 170 205 97 307 -34 48 -107 87 -266 142 -82 29 -174 63 -203 77
-74 35 -162 119 -197 190 -28 55 -30 64 -30 183 0 114 2 130 26 180 66 139
209 235 400 269 72 13 230 6 304 -14z m673 -362 l3 -153 130 0 130 0 -3 -102
-3 -103 -127 -3 -128 -3 0 -270 c0 -293 4 -322 55 -355 21 -14 41 -16 110 -11
l85 5 0 -99 0 -99 -27 -7 c-16 -5 -84 -8 -153 -8 -110 0 -130 3 -167 22 -61
33 -109 88 -135 152 -20 53 -22 75 -26 364 l-4 307 -89 0 -89 0 0 105 0 105
90 0 90 0 0 148 c0 82 3 152 7 156 4 3 61 5 127 4 l121 -3 3 -152z m937 -138
c209 -55 329 -214 355 -475 6 -56 8 -110 5 -121 -6 -18 -20 -19 -396 -19
l-389 0 0 -27 c1 -73 69 -158 160 -202 45 -21 69 -26 135 -26 101 0 163 23
227 83 l47 44 85 -68 84 -68 -25 -33 c-50 -66 -158 -131 -260 -157 -78 -20
-240 -21 -318 -1 -190 49 -333 184 -380 361 -23 82 -23 253 0 329 56 193 199
335 383 379 77 19 215 19 287 1z m749 -392 c77 -205 143 -373 146 -373 3 0 61
165 129 368 68 202 127 371 131 375 4 4 65 6 137 5 l131 -3 -258 -666 c-141
-366 -270 -688 -286 -715 -59 -101 -139 -155 -259 -174 -62 -10 -181 -5 -203
9 -6 4 -7 34 -1 86 4 44 8 92 8 106 1 26 1 26 85 25 123 -1 147 21 220 206
l32 84 -71 169 c-40 94 -140 329 -223 523 l-150 353 145 -3 145 -3 142 -372z"/>
<path d="M3777 3870 c-85 -22 -150 -73 -183 -145 -13 -27 -24 -62 -24 -78 l0
-27 263 2 262 3 -3 40 c-8 82 -52 149 -124 186 -45 23 -138 32 -191 19z"/>
</g>
</svg>
