<svg width="73" height="40" viewBox="0 0 73 40" fill="none" xmlns="http://www.w3.org/2000/svg">
<path d="M17.0224 6.87371C16.4742 6.15597 15.693 5.56246 14.6788 5.09317C13.692 4.59627 12.6914 4.34782 11.6772 4.34782C11.0742 4.34782 10.4711 4.43064 9.86808 4.59627C9.26503 4.7343 8.7168 4.96894 8.2234 5.30021C7.72999 5.60386 7.31882 6.01794 6.98989 6.54244C6.68836 7.03934 6.5376 7.64665 6.5376 8.36439C6.5376 9.02691 6.67466 9.59282 6.94877 10.0621C7.22288 10.5314 7.59294 10.9317 8.05893 11.2629C8.55233 11.5942 9.14168 11.8841 9.82696 12.1325C10.5122 12.381 11.2661 12.6294 12.0884 12.8778C13.0204 13.1815 13.9798 13.5266 14.9666 13.913C15.9808 14.2995 16.8991 14.8102 17.7214 15.4451C18.5712 16.0801 19.2565 16.8806 19.7773 17.8468C20.3255 18.813 20.5996 20.0138 20.5996 21.4493C20.5996 23.0228 20.3118 24.403 19.7362 25.5901C19.1605 26.7495 18.393 27.7157 17.4336 28.4886C16.4742 29.2616 15.3503 29.8413 14.062 30.2277C12.7737 30.6142 11.4168 30.8075 9.99143 30.8075C8.10005 30.8075 6.24978 30.4624 4.44063 29.7723C2.63149 29.0545 1.15128 28.0055 0 26.6253L3.70053 23.147C4.41322 24.1408 5.35891 24.9275 6.5376 25.5072C7.7437 26.087 8.92239 26.3768 10.0737 26.3768C10.6767 26.3768 11.2935 26.3078 11.9239 26.1698C12.5544 26.0041 13.1163 25.7419 13.6097 25.383C14.1305 25.0242 14.5417 24.5825 14.8432 24.058C15.1722 23.5059 15.3366 22.8295 15.3366 22.029C15.3366 21.256 15.1585 20.6211 14.8021 20.1242C14.4458 19.5997 13.9661 19.158 13.363 18.7992C12.76 18.4127 12.0473 18.0814 11.2249 17.8054C10.4026 17.5293 9.53914 17.2395 8.63457 16.9358C7.75741 16.6598 6.88024 16.3285 6.00308 15.942C5.12592 15.5556 4.33099 15.0449 3.6183 14.4099C2.93301 13.775 2.37108 13.0021 1.9325 12.0911C1.49392 11.1525 1.27463 9.9931 1.27463 8.61284C1.27463 7.12215 1.57615 5.83851 2.1792 4.7619C2.80966 3.6853 3.61829 2.80193 4.6051 2.1118C5.61932 1.39406 6.75689 0.869564 8.01781 0.5383C9.30615 0.179433 10.6082 0 11.9239 0C13.4041 0 14.8981 0.26225 16.4057 0.786749C17.9407 1.31125 19.2702 2.098 20.394 3.147L17.0224 6.87371Z" />
<path d="M19.792 14.1615V10.1863H23.2459V4.43064H28.0977V10.1863H33.0317V14.1615H28.0977V23.3954C28.0977 24.2788 28.2484 25.0103 28.55 25.5901C28.8789 26.1698 29.5916 26.4596 30.6881 26.4596C31.017 26.4596 31.3733 26.432 31.7571 26.3768C32.1409 26.294 32.4835 26.1836 32.785 26.0455L32.9495 29.9379C32.5109 30.1035 31.9901 30.2277 31.387 30.3106C30.784 30.421 30.2084 30.4762 29.6601 30.4762C28.3444 30.4762 27.2753 30.2968 26.453 29.9379C25.6307 29.5514 24.9728 29.0407 24.4794 28.4058C24.0134 27.7433 23.6845 26.9979 23.4926 26.1698C23.3281 25.314 23.2459 24.403 23.2459 23.4369V14.1615H19.792Z" />
<path d="M47.8274 18.1366C47.8274 17.5017 47.7315 16.8944 47.5396 16.3147C47.3751 15.735 47.101 15.2243 46.7173 14.7826C46.3335 14.3409 45.8401 13.9959 45.237 13.7474C44.6614 13.4714 43.9761 13.3333 43.1812 13.3333C41.701 13.3333 40.4401 13.7888 39.3984 14.6998C38.3842 15.5832 37.8223 16.7288 37.7126 18.1366H47.8274ZM52.7614 20.3727C52.7614 20.5935 52.7614 20.8144 52.7614 21.0352C52.7614 21.256 52.7477 21.4769 52.7203 21.6977H37.7126C37.7675 22.4155 37.9456 23.078 38.2472 23.6853C38.5761 24.265 39.001 24.7757 39.5218 25.2174C40.0426 25.6315 40.6319 25.9627 41.2898 26.2112C41.9477 26.4596 42.633 26.5838 43.3457 26.5838C44.5792 26.5838 45.6208 26.363 46.4705 25.9213C47.3203 25.452 48.0193 24.8171 48.5675 24.0166L51.8569 26.6667C49.9107 29.3168 47.0873 30.6418 43.3868 30.6418C41.8517 30.6418 40.4401 30.4072 39.1517 29.9379C37.8634 29.441 36.7395 28.7509 35.7801 27.8675C34.8481 26.9841 34.108 25.9075 33.5598 24.6377C33.039 23.3402 32.7786 21.8772 32.7786 20.2484C32.7786 18.6473 33.039 17.1981 33.5598 15.9006C34.108 14.5756 34.8481 13.4576 35.7801 12.5466C36.7121 11.608 37.8086 10.8903 39.0695 10.3934C40.3578 9.86888 41.7421 9.60662 43.2223 9.60662C44.5929 9.60662 45.8538 9.84127 47.0051 10.3106C48.1838 10.7522 49.198 11.4286 50.0477 12.3395C50.8975 13.2229 51.5553 14.3409 52.0213 15.6936C52.5147 17.0186 52.7614 18.5783 52.7614 20.3727Z" />
<path d="M51.907 10.1863H57.3755L62.8852 24.6377H62.9675L67.8604 10.1863H73L63.6664 34.3271C63.3101 35.2381 62.9263 36.0386 62.5152 36.7288C62.104 37.4465 61.6106 38.04 61.035 38.5093C60.4593 39.0062 59.774 39.3789 58.9791 39.6273C58.2116 39.8758 57.2796 40 56.1832 40C55.772 40 55.3471 39.9724 54.9085 39.9172C54.4974 39.8896 54.0725 39.8206 53.6339 39.7101L54.0451 35.4037C54.374 35.5141 54.6892 35.5832 54.9908 35.6108C55.3197 35.666 55.6212 35.6936 55.8953 35.6936C56.4161 35.6936 56.8547 35.6246 57.2111 35.4865C57.5674 35.3761 57.8689 35.1829 58.1157 34.9068C58.3624 34.6584 58.5816 34.3409 58.7735 33.9544C58.9654 33.568 59.171 33.1125 59.3903 32.588L60.3771 30.0621L51.907 10.1863Z" />
</svg>
